<svg version="1.1" xmlns="http://www.w3.org/2000/svg" xmlns:xlink="http://www.w3.org/1999/xlink" x="0px" y="0px" viewBox="0 0 500 500" enable-background="new 0 0 500 500" xml:space="preserve">
  <g id="Ebene_2">
    <circle stroke="#C1272D" fill="#222222" stroke-miterlimit="10" cx="250.125" cy="250" r="248.333"/>
  </g>
  <g id="Ebene_1">
    <g id="XMLID_1_">
      <g>
        <path fill="#EF4836" d="M382.046,380.984c-0.063,0.063-0.134,0.133-0.197,0.196c-14.172,14.172-30.058,25.577-46.983,34.215
          l-5.985-11.735c15.728-8.021,30.489-18.62,43.658-31.79c0.063-0.063,0.134-0.133,0.197-0.196l9.088,9.088L382.046,380.984z"/>
        <path fill="#90C695" d="M382.046,380.984l-0.223-0.223l-9.088-9.088c13.08-13.118,23.603-27.805,31.593-43.449l11.729,5.979
          C407.464,351.048,396.129,366.863,382.046,380.984z"/>
        <path fill="#EF4836" d="M416.057,334.203l-11.729-5.979c8.32-16.316,13.88-33.668,16.666-51.369l13.011,2.057l0.007,0.007
          C431.003,297.971,425.024,316.643,416.057,334.203z"/>
        <path fill="#90C695" d="M328.88,403.66l5.985,11.735c-17.555,8.961-36.227,14.939-55.278,17.948l-2.063-13.018
          C295.225,417.54,312.576,411.98,328.88,403.66z"/>
        <path fill="#222222" d="M372.735,371.674c-0.063,0.063-0.134,0.133-0.197,0.196c-13.169,13.17-27.931,23.769-43.658,31.79l-30.564-60.013
          c9.59-4.894,18.589-11.354,26.617-19.383c0.063-0.063,0.134-0.133,0.197-0.196L372.735,371.674z"/>
        <path fill="#EEEEEE" d="M372.735,371.674l-47.605-47.605c7.939-7.978,14.33-16.907,19.186-26.421l60.013,30.577
          C396.338,343.869,385.815,358.556,372.735,371.674z"/>
        <path fill="#222222" d="M404.328,328.225l-60.013-30.577c5.083-9.945,8.473-20.519,10.174-31.32l66.505,10.528
          C418.208,294.557,412.648,311.908,404.328,328.225z"/>
        <path fill="#EEEEEE" d="M298.315,343.647l30.564,60.013c-16.304,8.32-33.655,13.88-51.356,16.666l-10.528-66.505
          C277.79,352.126,288.37,348.73,298.315,343.647z"/>
        <path fill="#EF4836" d="M277.523,420.326l2.063,13.018c-19.243,3.033-38.867,3.033-58.11,0l2.063-13.018
          C241.418,423.15,259.652,423.157,277.523,420.326z"/>
        <path fill="#90C695" d="M434.005,278.912l-13.011-2.057c2.818-17.871,2.818-36.099-0.006-53.977l13.017-2.063
          C437.045,240.052,437.045,259.676,434.005,278.912z"/>
        <path fill="#EEEEEE" d="M420.994,276.855l-66.505-10.528c1.72-10.897,1.726-22.01,0-32.914l66.499-10.535
          C423.813,240.757,423.813,258.984,420.994,276.855z"/>
        <path fill="#222222" d="M266.995,353.821l10.528,66.505c-17.871,2.831-36.105,2.824-53.983,0l10.529-66.505
          C244.972,355.547,256.092,355.547,266.995,353.821z"/>
        <path fill="#EF4836" d="M434.005,220.815l-13.017,2.063c-2.786-17.701-8.346-35.052-16.673-51.363l11.614-5.915l0.14-0.051
          C425.019,183.092,430.997,201.763,434.005,220.815z"/>
        <path fill="#90C695" d="M223.54,420.326l-2.063,13.018c-19.052-3.009-37.73-8.993-55.278-17.948l5.985-11.735
          C188.488,411.98,205.839,417.54,223.54,420.326z"/>
        <path fill="#EF4836" d="M325.13,324.068c-0.063,0.063-0.134,0.133-0.197,0.196c-8.028,8.028-17.027,14.489-26.617,19.383
          l-5.833-11.443c8.429-4.29,16.323-9.964,23.375-17.015c0.063-0.063,0.133-0.134,0.196-0.197L325.13,324.068z"/>
        <path fill="#90C695" d="M325.13,324.068l-9.076-9.076c6.963-7,12.566-14.825,16.818-23.165l11.443,5.82
          C339.46,307.161,333.069,316.091,325.13,324.068z"/>
        <path fill="#222222" d="M420.988,222.878l-66.499,10.535c-1.695-10.795-5.097-21.381-10.181-31.327l60.007-30.571
          C412.643,187.826,418.202,205.178,420.988,222.878z"/>
        <path fill="#EEEEEE" d="M234.069,353.821l-10.529,66.505c-17.701-2.786-35.052-8.346-51.356-16.666l-0.006-0.006l30.571-60.007
          C212.694,348.73,223.273,352.126,234.069,353.821z"/>
        <path fill="#EF4836" d="M344.315,297.647l-11.443-5.82c4.469-8.732,7.444-18.018,8.937-27.506l12.681,2.006
          C352.788,277.129,349.398,287.702,344.315,297.647z"/>
        <path fill="#90C695" d="M292.482,332.204l5.833,11.443c-9.945,5.083-20.525,8.479-31.32,10.174l-2.012-12.675
          C274.465,339.649,283.756,336.679,292.482,332.204z"/>
        <path fill="#222222" d="M316.054,314.992c-0.063,0.063-0.133,0.134-0.196,0.197c-7.052,7.051-14.946,12.725-23.375,17.015l-31.961-62.729
          l-0.083-0.158c1.993-1.016,3.865-2.354,5.528-4.018c0.063-0.063,0.127-0.127,0.184-0.196l0.165,0.151L316.054,314.992z"/>
        <path fill="#EEEEEE" d="M316.054,314.992l-49.738-49.738l-0.165-0.151c1.581-1.606,2.862-3.408,3.834-5.319l62.888,32.044
          C328.62,300.167,323.017,307.992,316.054,314.992z"/>
        <path fill="#222222" d="M332.872,291.827l-62.888-32.044l-0.007-0.006c1.054-2.057,1.765-4.252,2.107-6.499l69.724,11.043
          C340.316,273.81,337.341,283.095,332.872,291.827z"/>
        <path fill="#EEEEEE" d="M260.521,269.475l31.961,62.729c-8.727,4.475-18.018,7.445-27.499,8.942l-11.043-69.724
          c2.24-0.349,4.442-1.053,6.498-2.106L260.521,269.475z"/>
        <path fill="#90C695" d="M354.489,266.327l-12.681-2.006c1.517-9.564,1.522-19.332,0.006-28.909l12.675-1.999
          C356.215,244.317,356.209,255.43,354.489,266.327z"/>
        <path fill="#EF4836" d="M264.983,341.146l2.012,12.675c-10.903,1.726-22.023,1.726-32.926,0l2.005-12.681
          C245.645,342.663,255.406,342.663,264.983,341.146z"/>
        <path fill="#EEEEEE" d="M341.809,264.321l-69.724-11.043c0.361-2.253,0.361-4.563,0-6.816l69.729-11.05
          C343.331,244.99,343.325,254.757,341.809,264.321z"/>
        <path fill="#222222" d="M253.94,271.423l11.043,69.724c-9.577,1.517-19.338,1.517-28.909-0.006l11.024-69.591l0.025-0.127
          C249.377,271.785,251.681,271.778,253.94,271.423z"/>
        <path fill="#EF4836" d="M354.489,233.414l-12.675,1.999c-1.498-9.481-4.474-18.767-8.948-27.493l11.442-5.833
          C349.393,212.032,352.794,222.618,354.489,233.414z"/>
        <path fill="#90C695" d="M236.074,341.141l-2.005,12.681c-10.795-1.695-21.375-5.091-31.32-10.174l5.833-11.443
          C217.301,336.673,226.593,339.655,236.074,341.141z"/>
        <path fill="#90C695" d="M416.069,165.55l-0.14,0.051l-11.614,5.915c-8.016-15.708-18.602-30.458-31.745-43.614l9.253-9.253
          l0.058-0.057C396.033,132.757,407.432,148.636,416.069,165.55z"/>
        <path fill="#EF4836" d="M172.184,403.66l-5.985,11.735c-16.92-8.632-32.78-20.023-46.946-34.177l9.311-9.311
          c13.156,13.145,27.899,23.736,43.614,31.746L172.184,403.66z"/>
        <path fill="#222222" d="M341.814,235.413l-69.729,11.05c-0.343-2.247-1.054-4.443-2.101-6.505l62.882-32.038
          C337.341,216.646,340.316,225.931,341.814,235.413z"/>
        <path fill="#EEEEEE" d="M247.099,271.55l-11.024,69.591c-9.481-1.485-18.773-4.468-27.493-8.937l32.038-62.882
          c2.063,1.048,4.258,1.758,6.505,2.101L247.099,271.55z"/>
        <path fill="#222222" d="M202.749,343.647l-30.571,60.007c-15.714-8.01-30.458-18.602-43.614-31.746l47.605-47.605
          C184.191,332.313,193.171,338.767,202.749,343.647z"/>
        <path fill="#EEEEEE" d="M404.315,171.516l-60.007,30.571c-4.88-9.577-11.335-18.558-19.344-26.58l47.605-47.605
          C385.714,141.058,396.3,155.808,404.315,171.516z"/>
        <path fill="#EF4836" d="M208.581,332.204l-5.833,11.443c-9.577-4.881-18.558-11.335-26.58-19.345l9.076-9.075
          C192.29,322.26,200.172,327.921,208.581,332.204z"/>
        <path fill="#90C695" d="M344.309,202.087l-11.442,5.833c-4.284-8.409-9.945-16.292-16.978-23.336l9.076-9.076
          C332.974,183.529,339.429,192.51,344.309,202.087z"/>
        <path fill="#EEEEEE" d="M332.866,207.919l-62.882,32.038c-1.01-1.974-2.342-3.827-3.992-5.49l0.323-0.311l49.573-49.573
          C322.921,191.628,328.582,199.51,332.866,207.919z"/>
        <path fill="#222222" d="M240.619,269.322l-32.038,62.882c-8.409-4.283-16.292-9.944-23.336-16.977l49.891-49.891
          C236.792,266.98,238.645,268.313,240.619,269.322z"/>
        <path fill="#90C695" d="M272.085,246.462c0.361,2.253,0.361,4.563,0,6.816c-0.343,2.247-1.054,4.442-2.107,6.499l0.007,0.006
          c-0.972,1.911-2.253,3.713-3.834,5.319c-0.057,0.069-0.12,0.133-0.184,0.196c-1.663,1.663-3.535,3.002-5.528,4.018
          c-2.056,1.054-4.258,1.758-6.498,2.106c-2.26,0.355-4.563,0.362-6.817,0c-2.247-0.343-4.442-1.053-6.505-2.101
          c-1.974-1.009-3.827-2.342-5.483-3.985c-0.013-0.013-0.025-0.025-0.038-0.038c-1.663-1.663-3.008-3.528-4.024-5.521
          c-1.047-2.063-1.751-4.252-2.094-6.499c-0.362-2.253-0.368-4.557-0.006-6.822c0.349-2.241,1.053-4.443,2.107-6.499
          c1.016-1.993,2.354-3.865,4.018-5.528c0.063-0.063,0.133-0.133,0.203-0.19c1.605-1.581,3.408-2.85,5.312-3.827
          c2.063-1.047,4.258-1.758,6.505-2.101c2.26-0.355,4.569-0.355,6.829,0c2.24,0.349,4.43,1.053,6.492,2.101
          c1.993,1.016,3.859,2.361,5.521,4.024c0.013,0.013,0.02,0.019,0.032,0.032c1.65,1.663,2.982,3.516,3.992,5.49
          C271.031,242.02,271.742,244.215,272.085,246.462z M256.752,256.084c3.433-3.434,3.439-9,0-12.44
          c-3.44-3.439-9.006-3.433-12.44,0c-3.439,3.44-3.439,9,0,12.44C247.752,259.523,253.312,259.523,256.752,256.084z"/>
        <path fill="#EF4836" d="M256.752,243.644c3.439,3.44,3.433,9.006,0,12.44c-3.44,3.439-9,3.439-12.44,0
          c-3.439-3.44-3.439-9,0-12.44C247.746,240.211,253.312,240.205,256.752,243.644z"/>
        <path fill="#90C695" d="M128.563,371.908l-9.311,9.311c-0.013-0.013-0.025-0.025-0.038-0.038
          c-14.166-14.165-25.57-30.051-34.208-46.978l11.735-5.984c8.022,15.727,18.614,30.482,31.784,43.651
          C128.538,371.883,128.551,371.896,128.563,371.908z"/>
        <path fill="#EEEEEE" d="M176.169,324.303l-47.605,47.605c-0.013-0.013-0.025-0.025-0.038-0.038
          c-13.169-13.169-23.762-27.925-31.784-43.651l60.007-30.571c4.893,9.59,11.354,18.589,19.382,26.617
          C176.144,324.277,176.156,324.29,176.169,324.303z"/>
        <path fill="#90C695" d="M185.245,315.228l-9.076,9.075c-0.013-0.013-0.025-0.025-0.038-0.038
          c-8.028-8.028-14.489-17.027-19.382-26.617l11.437-5.826c4.297,8.422,9.971,16.317,17.021,23.368
          C185.219,315.202,185.232,315.215,185.245,315.228z"/>
        <path fill="#EEEEEE" d="M235.135,265.337l-49.891,49.891c-0.013-0.013-0.025-0.025-0.038-0.038
          c-7.051-7.051-12.725-14.946-17.021-23.368l62.888-32.044c1.016,1.993,2.361,3.858,4.024,5.521
          C235.11,265.312,235.123,265.324,235.135,265.337z"/>
        <path fill="#222222" d="M315.889,184.583l-49.573,49.573l-0.323,0.311c-0.013-0.013-0.02-0.019-0.032-0.032
          c-1.662-1.663-3.528-3.008-5.521-4.024l32.044-62.888c8.422,4.297,16.317,9.971,23.368,17.021
          C315.863,184.558,315.876,184.57,315.889,184.583z"/>
        <path fill="#EF4836" d="M324.965,175.507l-9.076,9.076c-0.013-0.013-0.025-0.025-0.038-0.038
          c-7.051-7.051-14.946-12.725-23.368-17.021l5.826-11.437c9.59,4.893,18.59,11.354,26.618,19.382
          C324.939,175.482,324.952,175.495,324.965,175.507z"/>
        <path fill="#222222" d="M372.57,127.902l-47.605,47.605c-0.013-0.013-0.025-0.025-0.038-0.038c-8.028-8.028-17.028-14.489-26.618-19.382
          l30.578-60c15.727,8.022,30.482,18.614,43.646,31.777C372.545,127.876,372.558,127.889,372.57,127.902z"/>
        <path fill="#EF4836" d="M381.823,118.648l-9.253,9.253c-0.013-0.013-0.025-0.025-0.038-0.038
          c-13.163-13.163-27.919-23.755-43.646-31.777l5.915-11.614l0.069-0.133c16.92,8.644,32.806,20.049,46.972,34.214
          c0.013,0.013,0.025,0.025,0.038,0.038L381.823,118.648z"/>
        <path fill="#EEEEEE" d="M292.482,167.523l-32.044,62.888c-2.063-1.047-4.252-1.751-6.492-2.101l11.037-69.73
          C274.465,160.079,283.75,163.056,292.482,167.523z"/>
        <path fill="#222222" d="M231.073,259.777l-62.888,32.044c-4.461-8.727-7.444-18.019-8.93-27.5l69.298-10.973l0.425-0.07
          C229.322,255.525,230.026,257.715,231.073,259.777z"/>
        <path fill="#222222" d="M264.983,158.581l-11.037,69.73c-2.26-0.355-4.569-0.355-6.829,0l-11.043-69.724
          C245.639,157.071,255.406,157.064,264.983,158.581z"/>
        <path fill="#EEEEEE" d="M228.979,253.278l-0.425,0.07l-69.298,10.973c-1.523-9.57-1.523-19.332-0.006-28.909l69.724,11.043
          C228.611,248.722,228.617,251.025,228.979,253.278z"/>
        <path fill="#EEEEEE" d="M236.074,158.587l11.043,69.724c-2.247,0.343-4.442,1.053-6.505,2.101l-0.006-0.019l-32.031-62.875
          C217.301,163.056,226.593,160.073,236.074,158.587z"/>
        <path fill="#222222" d="M228.973,246.456l-69.724-11.043c1.498-9.481,4.468-18.773,8.942-27.5l62.831,32.012l0.057,0.032
          C230.026,242.013,229.322,244.215,228.973,246.456z"/>
        <path fill="#EEEEEE" d="M231.08,239.957l-0.057-0.032l-62.831-32.012c4.291-8.428,9.964-16.323,17.015-23.375
          c0.063-0.063,0.133-0.133,0.197-0.197l49.814,49.814l0.083,0.083c-0.07,0.057-0.14,0.127-0.203,0.19
          C233.434,236.092,232.095,237.964,231.08,239.957z"/>
        <path fill="#222222" d="M240.606,230.393l0.006,0.019c-1.904,0.978-3.707,2.247-5.312,3.827l-0.083-0.083l-49.814-49.814
          c7-6.962,14.832-12.572,23.171-16.825L240.606,230.393z"/>
        <path fill="#90C695" d="M298.309,156.087l-5.826,11.437c-8.732-4.468-18.018-7.444-27.499-8.942l2.012-12.674
          C277.784,147.608,288.364,151.003,298.309,156.087z"/>
        <path fill="#EF4836" d="M168.185,291.821l-11.437,5.826c-5.083-9.945-8.479-20.525-10.173-31.32l12.68-2.006
          C160.741,273.803,163.724,283.095,168.185,291.821z"/>
        <path fill="#EEEEEE" d="M328.887,96.086l-30.578,60c-9.944-5.083-20.524-8.479-31.313-10.18l10.522-66.5
          C295.225,82.2,312.576,87.76,328.887,96.086z"/>
        <path fill="#222222" d="M156.749,297.647l-60.007,30.571c-8.327-16.311-13.886-33.662-16.672-51.363l66.506-10.528
          C148.27,277.122,151.665,287.702,156.749,297.647z"/>
        <path fill="#90C695" d="M334.802,84.472l-5.915,11.614c-16.311-8.327-33.662-13.886-51.369-16.679l2.063-13.017
          c19.059,3.002,37.737,8.987,55.291,17.948L334.802,84.472z"/>
        <path fill="#EF4836" d="M96.742,328.219l-11.735,5.984c-8.961-17.554-14.946-36.232-17.955-55.284l13.017-2.063
          C82.855,294.557,88.415,311.908,96.742,328.219z"/>
        <path fill="#90C695" d="M159.255,264.321l-12.68,2.006c-1.727-10.903-1.727-22.023,0.006-32.92l12.667,2.005
          C157.732,244.99,157.732,254.751,159.255,264.321z"/>
        <path fill="#EF4836" d="M266.995,145.907l-2.012,12.674c-9.577-1.517-19.345-1.51-28.909,0.006l-2.005-12.68
          C244.972,144.181,256.092,144.181,266.995,145.907z"/>
        <path fill="#EEEEEE" d="M146.575,266.327l-66.506,10.528c-2.824-17.878-2.824-36.105,0-53.983l66.512,10.535
          C144.849,244.304,144.849,255.424,146.575,266.327z"/>
        <path fill="#222222" d="M277.518,79.408l-10.522,66.5c-10.903-1.727-22.023-1.727-32.926,0L223.54,79.401
          C241.418,76.59,259.646,76.59,277.518,79.408z"/>
        <path fill="#EF4836" d="M159.249,235.413l-12.667-2.005c1.694-10.795,5.09-21.375,10.173-31.32l11.437,5.826
          C163.717,216.64,160.747,225.931,159.249,235.413z"/>
        <path fill="#90C695" d="M234.069,145.907l2.005,12.68c-9.481,1.485-18.773,4.468-27.5,8.93l-5.826-11.424
          C212.688,151.003,223.273,147.614,234.069,145.907z"/>
        <path fill="#222222" d="M146.582,233.407l-66.512-10.535c2.786-17.701,8.346-35.052,16.672-51.363l60.013,30.578
          C151.671,212.032,148.276,222.612,146.582,233.407z"/>
        <path fill="#EEEEEE" d="M223.54,79.401l10.529,66.506c-10.795,1.707-21.381,5.096-31.32,10.186l-30.571-60.02
          C188.488,87.747,205.846,82.194,223.54,79.401z"/>
        <path fill="#90C695" d="M168.191,207.913l-11.437-5.826c4.893-9.59,11.354-18.589,19.382-26.618
          c0.063-0.063,0.133-0.133,0.197-0.197l9.069,9.069c-0.063,0.063-0.133,0.133-0.197,0.197
          C178.156,191.59,172.482,199.485,168.191,207.913z"/>
        <path fill="#EF4836" d="M202.749,156.093l5.826,11.424c-8.339,4.252-16.171,9.863-23.171,16.825l-9.069-9.069
          C184.312,167.333,193.241,160.942,202.749,156.093z"/>
        <path fill="#222222" d="M172.177,96.074l30.571,60.02c-9.507,4.849-18.437,11.24-26.415,19.179l-47.605-47.605
          C141.847,114.587,156.533,104.064,172.177,96.074z"/>
        <path fill="#EEEEEE" d="M156.755,202.087l-60.013-30.578c8.028-15.721,18.621-30.477,31.79-43.646
          c0.063-0.063,0.133-0.133,0.197-0.197l47.605,47.605c-0.063,0.063-0.133,0.133-0.197,0.197
          C168.109,183.498,161.648,192.497,156.755,202.087z"/>
        <path fill="#EF4836" d="M279.58,66.391l-2.063,13.017c-17.872-2.818-36.1-2.818-53.978-0.006l-2.057-13.011
          C240.727,63.357,260.35,63.357,279.58,66.391z"/>
        <path fill="#90C695" d="M80.069,276.855l-13.017,2.063c-3.034-19.243-3.034-38.867,0-58.11l0.006,0.006l13.011,2.057
          C77.245,240.75,77.245,258.978,80.069,276.855z"/>
        <path fill="#EF4836" d="M80.069,222.872l-13.011-2.057l-0.006-0.006c3.008-19.052,8.987-37.724,17.948-55.278l11.741,5.979
          C88.415,187.82,82.855,205.171,80.069,222.872z"/>
        <path fill="#90C695" d="M221.483,66.391l2.057,13.011c-17.694,2.792-35.052,8.346-51.363,16.672l-5.928-11.627l-0.038-0.114
          C183.766,75.371,202.438,69.393,221.483,66.391z"/>
        <path fill="#90C695" d="M96.742,171.509L85,165.531c8.638-16.926,20.042-32.812,34.214-46.984
          c0.063-0.063,0.133-0.133,0.197-0.197l0.298,0.298l9.019,9.019c-0.063,0.063-0.133,0.133-0.197,0.197
          C115.362,141.033,104.77,155.789,96.742,171.509z"/>
        <path fill="#EF4836" d="M166.25,84.447l5.928,11.627c-15.645,7.99-30.331,18.513-43.449,31.593l-9.019-9.019l-0.298-0.298
          c14.121-14.083,29.943-25.424,46.8-34.018L166.25,84.447z"/>
      </g>
      <g>
        <path fill="none" stroke="#666666" stroke-miterlimit="10" d="M434.005,278.912c3.04-19.236,3.04-38.86,0-58.097
          c-3.008-19.052-8.986-37.724-17.936-55.266c-8.638-16.914-20.036-32.793-34.188-46.958c-0.013-0.013-0.025-0.025-0.038-0.038
          c-14.166-14.166-30.052-25.57-46.972-34.214c-17.554-8.961-36.232-14.946-55.291-17.948c-19.23-3.034-38.854-3.034-58.097,0
          c-19.046,3.002-37.717,8.98-55.272,17.942c-16.856,8.593-32.679,19.935-46.8,34.018c-0.063,0.063-0.133,0.133-0.197,0.197
          C105.043,132.719,93.638,148.604,85,165.531c-8.961,17.555-14.94,36.226-17.948,55.278c-3.034,19.243-3.034,38.867,0,58.11
          c3.008,19.052,8.993,37.73,17.955,55.284c8.638,16.927,20.042,32.813,34.208,46.978c0.013,0.013,0.025,0.025,0.038,0.038
          c14.166,14.153,30.026,25.545,46.946,34.177c17.548,8.955,36.226,14.939,55.278,17.948c19.243,3.033,38.867,3.033,58.11,0
          c19.052-3.009,37.724-8.987,55.278-17.948c16.926-8.638,32.812-20.043,46.983-34.215c0.063-0.063,0.134-0.133,0.197-0.196
          c14.083-14.121,25.418-29.937,34.011-46.781c8.968-17.561,14.946-36.232,17.955-55.284"/>
        <path fill="none" stroke="#666666" stroke-miterlimit="10" d="M172.177,403.654c-15.714-8.01-30.458-18.602-43.614-31.746
          c-0.013-0.013-0.025-0.025-0.038-0.038c-13.169-13.169-23.762-27.925-31.784-43.651c-8.327-16.311-13.886-33.662-16.672-51.363
          c-2.824-17.878-2.824-36.105,0-53.983c2.786-17.701,8.346-35.052,16.672-51.363c8.028-15.721,18.621-30.477,31.79-43.646
          c0.063-0.063,0.133-0.133,0.197-0.197c13.118-13.08,27.804-23.603,43.449-31.593c16.311-8.327,33.668-13.88,51.363-16.672
          c17.878-2.812,36.105-2.812,53.978,0.006c17.707,2.792,35.059,8.352,51.369,16.679c15.727,8.022,30.482,18.614,43.646,31.777
          c0.013,0.013,0.025,0.025,0.038,0.038c13.144,13.156,23.729,27.906,31.745,43.614c8.327,16.311,13.887,33.662,16.673,51.363
          c2.824,17.878,2.824,36.106,0.006,53.977c-2.786,17.701-8.346,35.053-16.666,51.369c-7.99,15.645-18.513,30.331-31.593,43.449
          c-0.063,0.063-0.134,0.133-0.197,0.196c-13.169,13.17-27.931,23.769-43.658,31.79c-16.304,8.32-33.655,13.88-51.356,16.666
          c-17.871,2.831-36.105,2.824-53.983,0c-17.701-2.786-35.052-8.346-51.356-16.666"/>
        <path fill="none" stroke="#666666" stroke-miterlimit="10" d="M298.315,343.647c9.59-4.894,18.589-11.354,26.617-19.383
          c0.063-0.063,0.134-0.133,0.197-0.196c7.939-7.978,14.33-16.907,19.186-26.421c5.083-9.945,8.473-20.519,10.174-31.32
          c1.72-10.897,1.726-22.01,0-32.914c-1.695-10.795-5.097-21.381-10.181-31.327c-4.88-9.577-11.335-18.558-19.344-26.58
          c-0.013-0.013-0.025-0.025-0.038-0.038c-8.028-8.028-17.028-14.489-26.618-19.382c-9.944-5.083-20.524-8.479-31.313-10.18
          c-10.903-1.727-22.023-1.727-32.926,0c-10.795,1.707-21.381,5.096-31.32,10.186c-9.507,4.849-18.437,11.24-26.415,19.179
          c-0.063,0.063-0.133,0.133-0.197,0.197c-8.028,8.028-14.489,17.028-19.382,26.618c-5.083,9.945-8.479,20.525-10.173,31.32
          c-1.733,10.897-1.733,22.017-0.006,32.92c1.694,10.795,5.09,21.375,10.173,31.32c4.893,9.59,11.354,18.589,19.382,26.617
          c0.013,0.013,0.025,0.025,0.038,0.038c8.022,8.01,17.002,14.464,26.58,19.345c9.945,5.083,20.525,8.479,31.32,10.174
          c10.903,1.726,22.023,1.726,32.926,0C277.79,352.126,288.37,348.73,298.315,343.647z"/>
        <path fill="none" stroke="#666666" stroke-miterlimit="10" d="M185.245,315.228c-0.013-0.013-0.025-0.025-0.038-0.038
          c-7.051-7.051-12.725-14.946-17.021-23.368c-4.461-8.727-7.444-18.019-8.93-27.5c-1.523-9.57-1.523-19.332-0.006-28.909
          c1.498-9.481,4.468-18.773,8.942-27.5c4.291-8.428,9.964-16.323,17.015-23.375c0.063-0.063,0.133-0.133,0.197-0.197
          c7-6.962,14.832-12.572,23.171-16.825c8.727-4.461,18.018-7.444,27.5-8.93c9.564-1.517,19.332-1.523,28.909-0.006
          c9.481,1.498,18.767,4.475,27.499,8.942c8.422,4.297,16.317,9.971,23.368,17.021c0.013,0.013,0.025,0.025,0.038,0.038
          c7.032,7.045,12.693,14.927,16.978,23.336c4.475,8.727,7.45,18.012,8.948,27.493c1.517,9.577,1.511,19.344-0.006,28.909
          c-1.492,9.488-4.468,18.773-8.937,27.506c-4.252,8.34-9.855,16.165-16.818,23.165c-0.063,0.063-0.133,0.134-0.196,0.197
          c-7.052,7.051-14.946,12.725-23.375,17.015c-8.727,4.475-18.018,7.445-27.499,8.942c-9.577,1.517-19.338,1.517-28.909-0.006
          c-9.481-1.485-18.773-4.468-27.493-8.937C200.172,327.921,192.29,322.26,185.245,315.228z"/>
        <path fill="none" stroke="#666666" stroke-miterlimit="10" d="M269.984,259.783c-0.972,1.911-2.253,3.713-3.834,5.319
          c-0.057,0.069-0.12,0.133-0.184,0.196c-1.663,1.663-3.535,3.002-5.528,4.018c-2.056,1.054-4.258,1.758-6.498,2.106
          c-2.26,0.355-4.563,0.362-6.817,0c-2.247-0.343-4.442-1.053-6.505-2.101c-1.974-1.009-3.827-2.342-5.483-3.985
          c-0.013-0.013-0.025-0.025-0.038-0.038c-1.663-1.663-3.008-3.528-4.024-5.521c-1.047-2.063-1.751-4.252-2.094-6.499
          c-0.362-2.253-0.368-4.557-0.006-6.822c0.349-2.241,1.053-4.443,2.107-6.499c1.016-1.993,2.354-3.865,4.018-5.528
          c0.063-0.063,0.133-0.133,0.203-0.19c1.605-1.581,3.408-2.85,5.312-3.827c2.063-1.047,4.258-1.758,6.505-2.101
          c2.26-0.355,4.569-0.355,6.829,0c2.24,0.349,4.43,1.053,6.492,2.101c1.993,1.016,3.859,2.361,5.521,4.024
          c0.013,0.013,0.02,0.019,0.032,0.032c1.65,1.663,2.982,3.516,3.992,5.49c1.047,2.063,1.758,4.258,2.101,6.505
          c0.361,2.253,0.361,4.563,0,6.816c-0.343,2.247-1.054,4.442-2.107,6.499"/>
        <path fill="none" stroke="#666666" stroke-miterlimit="10" d="M256.752,256.084c3.433-3.434,3.439-9,0-12.44
          c-3.44-3.439-9.006-3.433-12.44,0c-3.439,3.44-3.439,9,0,12.44C247.752,259.523,253.312,259.523,256.752,256.084z"/>
        <polyline fill="none" stroke="#666666" stroke-miterlimit="10" points="235.218,265.254 235.135,265.337 185.245,315.228
          176.169,324.303 128.563,371.908 119.253,381.219 119.075,381.396       "/>
        <polyline fill="none" stroke="#666666" stroke-miterlimit="10" points="240.619,269.322 208.581,332.204 202.749,343.647
          172.177,403.654 172.184,403.66 166.199,415.396      "/>
        <polyline fill="none" stroke="#666666" stroke-miterlimit="10" points="247.099,271.55 236.074,341.141 234.069,353.821
          223.54,420.326 221.477,433.344      "/>
        <polyline fill="none" stroke="#666666" stroke-miterlimit="10" points="253.94,271.423 264.983,341.146 266.995,353.821
          277.523,420.326 279.587,433.344       "/>
        <polyline fill="none" stroke="#666666" stroke-miterlimit="10" points="260.521,269.475 292.482,332.204 298.315,343.647
          328.88,403.66 334.865,415.396       "/>
        <polyline fill="none" stroke="#666666" stroke-miterlimit="10" points="266.315,265.254 316.054,314.992 325.13,324.068
          372.735,371.674 381.823,380.762       "/>
        <polyline fill="none" stroke="#666666" stroke-miterlimit="10" points="269.978,259.777 269.984,259.783 332.872,291.827
          344.315,297.647 404.328,328.225 416.057,334.203       "/>
        <polyline fill="none" stroke="#666666" stroke-miterlimit="10" points="272.085,253.278 341.809,264.321 354.489,266.327
          420.994,276.855 434.005,278.912 434.012,278.919       "/>
        <polyline fill="none" stroke="#666666" stroke-miterlimit="10" points="271.742,246.513 272.085,246.462 341.814,235.413
          354.489,233.414 420.988,222.878 434.005,220.815       "/>
        <polyline fill="none" stroke="#666666" stroke-miterlimit="10" points="269.984,239.957 332.866,207.919 344.309,202.087
          404.315,171.516 415.93,165.601      "/>
        <polyline fill="none" stroke="#666666" stroke-miterlimit="10" points="266.315,234.156 315.889,184.583 324.965,175.507
          372.57,127.902 381.823,118.648      "/>
        <polyline fill="none" stroke="#666666" stroke-miterlimit="10" points="260.438,230.412 292.482,167.523 298.309,156.087
          328.887,96.086 334.802,84.472       "/>
        <polyline fill="none" stroke="#666666" stroke-miterlimit="10" points="253.946,228.311 264.983,158.581 266.995,145.907
          277.518,79.408 279.58,66.391      "/>
        <polyline fill="none" stroke="#666666" stroke-miterlimit="10" points="247.124,228.355 247.117,228.311 236.074,158.587
          234.069,145.907 223.54,79.401 221.483,66.391 221.42,66.022      "/>
        <polyline fill="none" stroke="#666666" stroke-miterlimit="10" points="240.606,230.393 208.575,167.517 202.749,156.093
          172.177,96.074 166.25,84.447      "/>
        <polyline fill="none" stroke="#666666" stroke-miterlimit="10" points="235.218,234.156 185.403,184.342 176.334,175.272
          128.729,127.667 119.71,118.648      "/>
        <polyline fill="none" stroke="#666666" stroke-miterlimit="10" points="231.022,239.925 168.191,207.913 156.755,202.087
          96.742,171.509 85,165.531       "/>
        <polyline fill="none" stroke="#666666" stroke-miterlimit="10" points="228.973,246.456 159.249,235.413 146.582,233.407
          80.069,222.872 67.059,220.815       "/>
        <polyline fill="none" stroke="#666666" stroke-miterlimit="10" points="228.554,253.349 159.255,264.321 146.575,266.327
          80.069,276.855 67.052,278.919       "/>
        <polyline fill="none" stroke="#666666" stroke-miterlimit="10" points="231.073,259.777 168.185,291.821 156.749,297.647
          96.742,328.219 85.007,334.203       "/>
      </g>
    </g>
  </g>
</svg>
